<?xml version="1.0" encoding="UTF-8" standalone="no"?>
<!-- Created with Inkscape (http://www.inkscape.org/) -->

<svg
   version="1.0"
   width="500"
   height="500"
   id="svg2"
   sodipodi:docname="metaoriginal.svg"
   inkscape:version="1.1.1 (3bf5ae0d25, 2021-09-20)"
   xmlns:inkscape="http://www.inkscape.org/namespaces/inkscape"
   xmlns:sodipodi="http://sodipodi.sourceforge.net/DTD/sodipodi-0.dtd"
   xmlns="http://www.w3.org/2000/svg"
   xmlns:svg="http://www.w3.org/2000/svg">
  <sodipodi:namedview
     id="namedview33"
     pagecolor="#ffffff"
     bordercolor="#666666"
     borderopacity="1.0"
     inkscape:pageshadow="2"
     inkscape:pageopacity="0.0"
     inkscape:pagecheckerboard="0"
     showgrid="false"
     showguides="true"
     inkscape:zoom="1.2205661"
     inkscape:cx="252.34193"
     inkscape:cy="265.86025"
     inkscape:window-width="1920"
     inkscape:window-height="1017"
     inkscape:window-x="-8"
     inkscape:window-y="-8"
     inkscape:window-maximized="1"
     inkscape:current-layer="svg2">
    <sodipodi:guide
       position="0,500"
       orientation="0,500"
       id="guide850" />
    <sodipodi:guide
       position="500,500"
       orientation="500,0"
       id="guide852" />
    <sodipodi:guide
       position="500,0"
       orientation="0,-500"
       id="guide854" />
    <sodipodi:guide
       position="0,0"
       orientation="-500,0"
       id="guide856" />
  </sodipodi:namedview>
  <defs
     id="defs34" />
  <g
     id="layer1"
     transform="rotate(-150,233.88878,241.12787)"
     style="stroke-width:5;stroke-miterlimit:4;stroke-dasharray:none;paint-order:markers stroke fill">
    <g
       id="g7542"
       style="stroke-width:5;stroke-miterlimit:4;stroke-dasharray:none;paint-order:markers stroke fill">
      <path
         d="m 262.5,241.5 a 47,47 0 1 1 -94,0 47,47 0 1 1 94,0 z"
         style="fill:none;stroke:#000000;stroke-width:5;stroke-miterlimit:4;stroke-dasharray:none;paint-order:markers stroke fill"
         id="path1933" />
      <path
         d="m 262.5,335.5 a 47,47 0 1 1 -94,0 47,47 0 1 1 94,0 z"
         style="fill:none;stroke:#000000;stroke-width:5;stroke-miterlimit:4;stroke-dasharray:none;paint-order:markers stroke fill"
         id="path1961" />
      <path
         d="m 262.5,147.5 a 47,47 0 1 1 -94,0 47,47 0 1 1 94,0 z"
         style="fill:none;stroke:#000000;stroke-width:5;stroke-miterlimit:4;stroke-dasharray:none;paint-order:markers stroke fill"
         id="path1967" />
      <path
         d="m 180.5,194.5 a 47,47 0 1 1 -94,0 47,47 0 1 1 94,0 z"
         style="fill:none;stroke:#000000;stroke-width:5;stroke-miterlimit:4;stroke-dasharray:none;paint-order:markers stroke fill"
         id="path1971" />
      <path
         d="m 344.5,194.5 a 47,47 0 1 1 -94,0 47,47 0 1 1 94,0 z"
         style="fill:none;stroke:#000000;stroke-width:5;stroke-miterlimit:4;stroke-dasharray:none;paint-order:markers stroke fill"
         id="path1973" />
      <path
         d="m 180.5,288.5 a 47,47 0 1 1 -94,0 47,47 0 1 1 94,0 z"
         style="fill:none;stroke:#000000;stroke-width:5;stroke-miterlimit:4;stroke-dasharray:none;paint-order:markers stroke fill"
         id="path1979" />
      <path
         d="m 344.5,288.5 a 47,47 0 1 1 -94,0 47,47 0 1 1 94,0 z"
         style="fill:none;stroke:#000000;stroke-width:5;stroke-miterlimit:4;stroke-dasharray:none;paint-order:markers stroke fill"
         id="path1981" />
      <path
         d="m 262.5,429.5 a 47,47 0 1 1 -94,0 47,47 0 1 1 94,0 z"
         style="fill:none;stroke:#000000;stroke-width:5;stroke-miterlimit:4;stroke-dasharray:none;paint-order:markers stroke fill"
         id="path1963" />
      <path
         d="m 262.5,53.5 a 47,47 0 1 1 -94,0 47,47 0 1 1 94,0 z"
         style="fill:none;stroke:#000000;stroke-width:5;stroke-miterlimit:4;stroke-dasharray:none;paint-order:markers stroke fill"
         id="path1965" />
      <path
         d="m 98.5,147.5 a 47,47 0 1 1 -94,0 47,47 0 1 1 94,0 z"
         style="fill:none;stroke:#000000;stroke-width:5;stroke-miterlimit:4;stroke-dasharray:none;paint-order:markers stroke fill"
         id="path1969" />
      <path
         d="m 426.5,147.5 a 47,47 0 1 1 -94,0 47,47 0 1 1 94,0 z"
         style="fill:none;stroke:#000000;stroke-width:5;stroke-miterlimit:4;stroke-dasharray:none;paint-order:markers stroke fill"
         id="path1975" />
      <path
         d="m 98.5,335.5 a 47,47 0 1 1 -94,0 47,47 0 1 1 94,0 z"
         style="fill:none;stroke:#000000;stroke-width:5;stroke-miterlimit:4;stroke-dasharray:none;paint-order:markers stroke fill"
         id="path1977" />
      <path
         d="m 426.5,335.5 a 47,47 0 1 1 -94,0 47,47 0 1 1 94,0 z"
         style="fill:none;stroke:#000000;stroke-width:5;stroke-miterlimit:4;stroke-dasharray:none;paint-order:markers stroke fill"
         id="path1983" />
    </g>
    <g
       id="g7557"
       style="stroke-width:5;stroke-miterlimit:4;stroke-dasharray:none;paint-order:markers stroke fill">
      <path
         d="m 215.5,53.5 164,94 v 188 l -164,94 -164,-94 v -188 z"
         style="fill:none;stroke:#000000;stroke-width:5;stroke-miterlimit:4;stroke-dasharray:none;paint-order:markers stroke fill"
         id="path2886" />
      <path
         d="m 215.5,53.5 -164,282 h 328 z"
         style="fill:none;stroke:#000000;stroke-width:5;stroke-miterlimit:4;stroke-dasharray:none;paint-order:markers stroke fill"
         id="path2888" />
      <path
         d="m 51.5,147.5 164,282 164,-282 z"
         style="fill:none;stroke:#000000;stroke-width:5;stroke-miterlimit:4;stroke-dasharray:none;paint-order:markers stroke fill"
         id="path2890" />
      <path
         d="m 215.5,147.5 -82,47 v 94 l 82,47 82,-47 v -94 z"
         style="fill:none;stroke:#000000;stroke-width:5;stroke-miterlimit:4;stroke-dasharray:none;paint-order:markers stroke fill"
         id="path2892" />
      <path
         d="m 133.5,288.5 82,-235 82,235 z"
         style="fill:none;stroke:#000000;stroke-width:5;stroke-miterlimit:4;stroke-dasharray:none;paint-order:markers stroke fill"
         id="path2894" />
      <path
         d="m 215.5,429.5 -82,-235 h 164 z"
         style="fill:none;stroke:#000000;stroke-width:5;stroke-miterlimit:4;stroke-dasharray:none;paint-order:markers stroke fill"
         id="path2896" />
      <path
         d="m 51.5,147.5 328,188"
         style="fill:none;stroke:#000000;stroke-width:5;stroke-miterlimit:4;stroke-dasharray:none;paint-order:markers stroke fill"
         id="path2898" />
      <path
         d="m 51.5,335.5 328,-188"
         style="fill:none;stroke:#000000;stroke-width:5;stroke-miterlimit:4;stroke-dasharray:none;paint-order:markers stroke fill"
         id="path2900" />
      <path
         d="m 215.5,53.5 v 376"
         style="fill:none;stroke:#000000;stroke-width:5;stroke-miterlimit:4;stroke-dasharray:none;paint-order:markers stroke fill"
         id="path2902" />
      <path
         d="m 51.5,335.5 164,-188 82,141 z"
         style="fill:none;stroke:#000000;stroke-width:5;stroke-miterlimit:4;stroke-dasharray:none;paint-order:markers stroke fill"
         id="path2904" />
      <path
         d="m 379.5,335.5 -164,-188 -82,141 z"
         style="fill:none;stroke:#000000;stroke-width:5;stroke-miterlimit:4;stroke-dasharray:none;paint-order:markers stroke fill"
         id="path2906" />
      <path
         d="m 379.5,147.5 -246,47 82,141 z"
         style="fill:none;stroke:#000000;stroke-width:5;stroke-miterlimit:4;stroke-dasharray:none;paint-order:markers stroke fill"
         id="path2908" />
      <path
         d="m 51.5,147.5 164,188 82,-141 z"
         style="fill:none;stroke:#000000;stroke-width:5;stroke-miterlimit:4;stroke-dasharray:none;paint-order:markers stroke fill"
         id="path2910" />
    </g>
  </g>
</svg>
